<svg width="24" height="24" viewBox="0 0 24 24" fill="none" xmlns="http://www.w3.org/2000/svg">
<path d="M18.3638 7.05025C18.7544 6.65972 18.7544 6.02656 18.3638 5.63603C17.9733 5.24551 17.3401 5.24551 16.9496 5.63603L11.9999 10.5858L7.05014 5.63606C6.65962 5.24554 6.02645 5.24554 5.63593 5.63606C5.2454 6.02659 5.2454 6.65975 5.63593 7.05028L10.5857 12L5.63591 16.9497C5.24539 17.3403 5.24539 17.9734 5.63591 18.364C6.02643 18.7545 6.6596 18.7545 7.05012 18.364L11.9999 13.4142L16.9496 18.364C17.3402 18.7545 17.9733 18.7545 18.3638 18.364C18.7544 17.9735 18.7544 17.3403 18.3638 16.9498L13.4141 12L18.3638 7.05025Z" fill="#1C1C21"/>
</svg>
